<svg xmlns="http://www.w3.org/2000/svg" width="95" height="95" viewBox="0 0 95 95" fill="none"><circle cx="47.5" cy="47.5" r="47.5" fill="#FF981F"></circle><path d="M70.1667 15.3333H56.93C55.6 11.66 52.1167 9 48 9C43.8833 9 40.4 11.66 39.07 15.3333H25.8333C22.35 15.3333 19.5 18.1833 19.5 21.6667V72.3333C19.5 75.8167 22.35 78.6667 25.8333 78.6667H70.1667C73.65 78.6667 76.5 75.8167 76.5 72.3333V21.6667C76.5 18.1833 73.65 15.3333 70.1667 15.3333ZM48 15.3333C49.7417 15.3333 51.1667 16.7583 51.1667 18.5C51.1667 20.2417 49.7417 21.6667 48 21.6667C46.2583 21.6667 44.8333 20.2417 44.8333 18.5C44.8333 16.7583 46.2583 15.3333 48 15.3333ZM70.1667 72.3333H25.8333V21.6667H32.1667V31.1667H63.8333V21.6667H70.1667V72.3333Z" fill="white"></path></svg>